<svg xmlns="http://www.w3.org/2000/svg" viewBox="0 0 92.21 7.31"><defs><style>.cls-1{fill:#fff;}</style></defs><title>Recurso 8</title><g id="Capa_2" data-name="Capa 2"><g id="Capa_1-2" data-name="Capa 1"><path class="cls-1" d="M91.93.18l.16.15L83.47,3.4a.39.39,0,0,1-.26,0L77,1.25,72.52,4.59a.37.37,0,0,1-.31,0L60.92,1.39,61,1.26l-.31.07.2.06L55.81,7.23l-.08.06a.29.29,0,0,1-.33-.08l-3.71-5,.19-.15-.33,0,.14.19-5.21,4a.24.24,0,0,1-.15,0l-9-1a.16.16,0,0,1-.11,0l-1.9-1.89.11,0-.17,0,.06.06L23.19,7a.12.12,0,0,1-.12,0L20.55,3.7l.06,0-.1,0,0,.05-10.08,3h0L6.87,5.5,0,6.11l6.87-.65h0l3.56,1.18,10.1-3.08a.08.08,0,0,1,.09,0l2.55,3.28-.08,0,.12,0,0,0L35.3,3a.16.16,0,0,1,.17,0L37.41,5h-.07l.11,0,0,0,8.86.94-.06,0,.14,0h-.08l5.31-4.09,0,0a.26.26,0,0,1,.29.07l3.7,4.91-.2.24.4,0-.2-.26,5-5.77a.29.29,0,0,1,.3-.08l11.34,3.2-.13.1.3,0-.17,0L76.68.75a.37.37,0,0,1,.33,0L83.3,2.88l-.13,0h.26l-.13,0L91.9.11l0-.11h.28C92,.1,91.93.16,91.93.18Z"/></g></g></svg>