<?xml version="1.0" encoding="iso-8859-1"?>
<!-- Generator: Adobe Illustrator 19.0.0, SVG Export Plug-In . SVG Version: 6.00 Build 0)  -->
<svg xmlns="http://www.w3.org/2000/svg" xmlns:xlink="http://www.w3.org/1999/xlink" version="1.1" id="Layer_1" x="0px" y="0px" viewBox="0 0 512 512" style="enable-background:new 0 0 512 512;" xml:space="preserve" width="512" height="512">
<g id="XMLID_4_">
	<g id="XMLID_1127_">
		<path id="XMLID_1128_" style="fill:#EFA66F;" d="M507.272,313.714L336.58,431.835c-2.472,1.7-5.532,2.328-8.478,1.71    L8.725,366.944c-9.426-1.968-11.909-14.258-3.997-19.738l47.667-32.987l123.025-85.124c2.472-1.71,5.532-2.328,8.478-1.72    l278.366,58.061l41.012,8.551C512.701,295.943,515.183,308.233,507.272,313.714z"/>
		<path id="XMLID_1129_" style="fill:#CF8671;" d="M462.263,285.435l-118.656,82.106c-3.915,2.709-8.509,4.141-13.269,4.141    c-1.597,0-3.194-0.165-4.759-0.484L52.394,314.219l123.025-85.124c2.472-1.71,5.532-2.328,8.478-1.72L462.263,285.435z"/>
		<path id="XMLID_1130_" style="fill:#00ED97;" d="M507.272,239.26L336.57,357.38c-2.472,1.7-5.532,2.328-8.468,1.71L8.725,292.479    c-9.426-1.968-11.909-14.258-3.997-19.728l47.677-32.986l123.024-85.124c2.472-1.71,5.532-2.328,8.468-1.72l278.376,58.051    l41.001,8.551C512.701,221.489,515.183,233.779,507.272,239.26z"/>
		<path id="XMLID_1131_" style="fill:#00C980;" d="M462.273,210.971l-23.416,16.205c-1.751,1.205-3.76,1.988-5.872,2.266    l-260.894,34.511c-1.494,0.196-3.008,0.134-4.481-0.165L52.404,239.764l123.024-85.124c2.472-1.71,5.532-2.328,8.468-1.72    L462.273,210.971z"/>
		<path id="XMLID_1132_" style="fill:#00B579;" d="M507.272,164.798l-75.656,52.353l-261.315,34.567L8.726,218.023    c-9.424-1.965-11.914-14.257-3.998-19.735l170.7-118.119c2.469-1.709,5.532-2.329,8.471-1.716l319.375,66.61    C512.698,147.029,515.188,159.321,507.272,164.798z"/>
		<path id="XMLID_1133_" style="fill:#009765;" d="M442.782,209.425l-11.167,7.726l-261.316,34.563l-18.904-3.946l169.558-97.249    c3.534-2.04,7.572-3.121,11.651-3.121c4.213,0,8.355,1.143,11.971,3.307L442.782,209.425z"/>
		<path id="XMLID_1134_" style="fill:#EFA66F;" d="M431.616,217.151l-93.388-55.841c-3.41-2.039-7.657-2.072-11.098-0.086    l-156.828,90.494L431.616,217.151z"/>
	</g>
	<g id="XMLID_1135_">
		<g id="XMLID_1136_">
			<g id="XMLID_1137_">
				<path id="XMLID_1138_" style="fill:#00C980;" d="M300.43,307.547c-4.219,0-7.667-3.391-7.724-7.623l-0.011-0.828      c-0.057-4.267,3.356-7.772,7.623-7.829c0.035-0.001,0.07-0.001,0.105-0.001c4.219,0,7.667,3.391,7.724,7.623l0.011,0.828      c0.057,4.267-3.356,7.772-7.623,7.829C300.5,307.547,300.464,307.547,300.43,307.547z"/>
				<path id="XMLID_1139_" style="fill:#00C980;" d="M300.358,333.669c-4.221,0-7.67-3.394-7.724-7.628l-0.011-0.828      c-0.054-4.267,3.361-7.77,7.627-7.824c4.281-0.095,7.77,3.361,7.824,7.627l0.011,0.828c0.054,4.267-3.361,7.77-7.627,7.824      C300.426,333.669,300.391,333.669,300.358,333.669z"/>
				<path id="XMLID_1140_" style="fill:#00C980;" d="M313.062,320.235c-4.221,0-7.67-3.394-7.724-7.627      c-0.055-4.267,3.36-7.77,7.627-7.825l0.823-0.011c4.261-0.068,7.77,3.36,7.825,7.627c0.055,4.267-3.36,7.77-7.627,7.825      l-0.823,0.011C313.129,320.235,313.095,320.235,313.062,320.235z"/>
				<path id="XMLID_1141_" style="fill:#00C980;" d="M286.892,320.164c-4.219,0-7.667-3.391-7.724-7.622      c-0.057-4.267,3.355-7.773,7.622-7.83l0.823-0.011c4.267-0.05,7.772,3.355,7.83,7.622c0.057,4.267-3.355,7.773-7.622,7.83      l-0.823,0.011C286.963,320.164,286.928,320.164,286.892,320.164z"/>
			</g>
			<g id="XMLID_1142_">
				<path id="XMLID_1143_" style="fill:#00C980;" d="M358.641,272.755c-4.221,0-7.67-3.394-7.724-7.628l-0.011-0.828      c-0.054-4.267,3.361-7.77,7.627-7.824c4.273-0.098,7.77,3.361,7.824,7.627l0.011,0.828c0.054,4.267-3.361,7.77-7.627,7.824      C358.708,272.755,358.674,272.755,358.641,272.755z"/>
				<path id="XMLID_1144_" style="fill:#00C980;" d="M358.569,298.876c-4.221,0-7.67-3.394-7.724-7.628l-0.011-0.828      c-0.054-4.267,3.361-7.77,7.627-7.824c4.28-0.047,7.77,3.361,7.824,7.627l0.011,0.828c0.054,4.267-3.361,7.77-7.627,7.824      C358.637,298.876,358.602,298.876,358.569,298.876z"/>
				<path id="XMLID_1145_" style="fill:#00C980;" d="M371.272,285.442c-4.219,0-7.667-3.391-7.724-7.623      c-0.057-4.267,3.355-7.772,7.622-7.829l0.823-0.011c4.237-0.053,7.772,3.355,7.829,7.622c0.057,4.267-3.355,7.772-7.622,7.829      l-0.823,0.011C371.343,285.442,371.308,285.442,371.272,285.442z"/>
				<path id="XMLID_1146_" style="fill:#00C980;" d="M345.103,285.371c-4.221,0-7.67-3.394-7.724-7.627      c-0.055-4.267,3.36-7.77,7.627-7.825l0.823-0.011c4.291-0.069,7.77,3.36,7.825,7.627c0.055,4.267-3.36,7.77-7.627,7.825      l-0.823,0.011C345.171,285.371,345.137,285.371,345.103,285.371z"/>
			</g>
			<g id="XMLID_1147_">
				<path id="XMLID_1148_" style="fill:#00C980;" d="M413.761,237.962c-4.221,0-7.67-3.394-7.724-7.628l-0.011-0.828      c-0.054-4.267,3.361-7.77,7.627-7.824c4.268-0.05,7.77,3.361,7.824,7.627l0.011,0.828c0.054,4.267-3.361,7.77-7.627,7.824      C413.828,237.962,413.794,237.962,413.761,237.962z"/>
				<path id="XMLID_1149_" style="fill:#00C980;" d="M413.689,264.083c-4.221,0-7.67-3.394-7.724-7.628l-0.011-0.828      c-0.054-4.267,3.361-7.77,7.627-7.824c4.275-0.063,7.77,3.361,7.824,7.627l0.011,0.828c0.054,4.267-3.361,7.77-7.627,7.824      C413.757,264.083,413.723,264.083,413.689,264.083z"/>
				<path id="XMLID_1150_" style="fill:#00C980;" d="M426.393,250.649c-4.221,0-7.67-3.394-7.724-7.627      c-0.055-4.267,3.36-7.77,7.627-7.825l0.823-0.011c4.228-0.087,7.77,3.36,7.825,7.627c0.055,4.267-3.36,7.77-7.627,7.825      l-0.823,0.011C426.46,250.649,426.426,250.649,426.393,250.649z"/>
				<path id="XMLID_1151_" style="fill:#00C980;" d="M400.224,250.578c-4.221,0-7.67-3.394-7.724-7.627      c-0.055-4.267,3.36-7.77,7.627-7.825l0.823-0.011c4.232-0.079,7.77,3.36,7.825,7.627c0.055,4.267-3.36,7.77-7.627,7.825      l-0.823,0.011C400.291,250.578,400.257,250.578,400.224,250.578z"/>
			</g>
		</g>
		<g id="XMLID_1152_">
			<g id="XMLID_1153_">
				<path id="XMLID_1154_" style="fill:#00C980;" d="M224.91,287.892c-4.219,0-7.667-3.391-7.724-7.623l-0.011-0.828      c-0.057-4.267,3.356-7.772,7.623-7.829c0.035,0,0.07,0,0.105,0c4.219,0,7.667,3.391,7.724,7.623l0.011,0.828      c0.057,4.267-3.356,7.772-7.623,7.829C224.98,287.892,224.945,287.892,224.91,287.892z"/>
				<path id="XMLID_1155_" style="fill:#00C980;" d="M224.838,314.013c-4.221,0-7.67-3.394-7.724-7.628l-0.011-0.828      c-0.054-4.267,3.361-7.77,7.627-7.824c4.251-0.035,7.77,3.361,7.824,7.627l0.011,0.828c0.054,4.267-3.361,7.77-7.627,7.824      C224.906,314.013,224.872,314.013,224.838,314.013z"/>
				<path id="XMLID_1156_" style="fill:#00C980;" d="M237.542,300.58c-4.219,0-7.667-3.391-7.724-7.623      c-0.057-4.267,3.355-7.772,7.622-7.829l0.823-0.011c4.243-0.086,7.772,3.356,7.829,7.622c0.057,4.267-3.355,7.772-7.622,7.829      l-0.823,0.011C237.613,300.58,237.577,300.58,237.542,300.58z"/>
				<path id="XMLID_1157_" style="fill:#00C980;" d="M211.373,300.508c-4.221,0-7.67-3.394-7.724-7.627      c-0.055-4.267,3.36-7.77,7.627-7.825l0.823-0.011c4.274-0.029,7.77,3.359,7.825,7.627c0.055,4.267-3.36,7.77-7.627,7.825      l-0.823,0.011C211.44,300.508,211.406,300.508,211.373,300.508z"/>
			</g>
			<g id="XMLID_1158_">
				<path id="XMLID_1159_" style="fill:#00C980;" d="M283.121,253.099c-4.219,0-7.667-3.391-7.724-7.623l-0.011-0.828      c-0.057-4.267,3.356-7.772,7.623-7.829c4.258-0.062,7.772,3.356,7.829,7.623l0.011,0.828c0.057,4.267-3.356,7.772-7.623,7.829      C283.191,253.099,283.156,253.099,283.121,253.099z"/>
				<path id="XMLID_1160_" style="fill:#00C980;" d="M283.049,279.22c-4.221,0-7.67-3.394-7.724-7.628l-0.011-0.828      c-0.054-4.267,3.361-7.77,7.627-7.824c4.25-0.052,7.77,3.361,7.824,7.627l0.011,0.828c0.054,4.267-3.361,7.77-7.627,7.824      C283.117,279.22,283.083,279.22,283.049,279.22z"/>
				<path id="XMLID_1161_" style="fill:#00C980;" d="M295.753,265.786c-4.221,0-7.67-3.394-7.724-7.627      c-0.055-4.267,3.36-7.77,7.627-7.825l0.823-0.011c4.232-0.045,7.77,3.36,7.825,7.627c0.055,4.267-3.36,7.77-7.627,7.825      l-0.823,0.011C295.82,265.786,295.786,265.786,295.753,265.786z"/>
				<path id="XMLID_1162_" style="fill:#00C980;" d="M269.584,265.715c-4.219,0-7.667-3.391-7.724-7.622      c-0.057-4.267,3.355-7.773,7.622-7.83l0.823-0.011c4.256-0.053,7.772,3.355,7.83,7.622c0.057,4.267-3.355,7.773-7.622,7.83      l-0.823,0.011C269.654,265.715,269.619,265.715,269.584,265.715z"/>
			</g>
		</g>
		<g id="XMLID_1163_">
			<g id="XMLID_1164_">
				<path id="XMLID_1165_" style="fill:#00C980;" d="M155.571,274.417c-4.219,0-7.667-3.391-7.724-7.623l-0.011-0.828      c-0.057-4.267,3.356-7.772,7.623-7.829c4.31-0.049,7.772,3.356,7.829,7.623l0.011,0.828c0.057,4.267-3.356,7.772-7.623,7.829      C155.641,274.417,155.606,274.417,155.571,274.417z"/>
				<path id="XMLID_1166_" style="fill:#00C980;" d="M155.5,300.538c-4.221,0-7.67-3.394-7.724-7.628l-0.011-0.828      c-0.054-4.267,3.361-7.77,7.627-7.824c0.033-0.001,0.067-0.001,0.101-0.001c4.221,0,7.67,3.394,7.724,7.628l0.011,0.828      c0.054,4.267-3.361,7.77-7.627,7.824C155.567,300.538,155.533,300.538,155.5,300.538z"/>
				<path id="XMLID_1167_" style="fill:#00C980;" d="M168.203,287.105c-4.221,0-7.67-3.394-7.724-7.627      c-0.055-4.267,3.36-7.77,7.627-7.825l0.823-0.011c4.258-0.089,7.77,3.36,7.825,7.627c0.055,4.267-3.36,7.77-7.627,7.825      l-0.823,0.011C168.27,287.105,168.237,287.105,168.203,287.105z"/>
				<path id="XMLID_1168_" style="fill:#00C980;" d="M142.033,287.034c-4.219,0-7.667-3.391-7.724-7.623      c-0.057-4.267,3.355-7.772,7.622-7.829l0.823-0.011c4.252-0.042,7.772,3.356,7.829,7.622c0.057,4.267-3.355,7.772-7.622,7.829      l-0.823,0.011C142.104,287.034,142.069,287.034,142.033,287.034z"/>
			</g>
		</g>
		<g id="XMLID_1169_">
			<g id="XMLID_1170_">
				<path id="XMLID_1171_" style="fill:#00C980;" d="M83.142,264.033c-4.219,0-7.667-3.391-7.724-7.623l-0.011-0.828      c-0.057-4.267,3.356-7.772,7.623-7.829c4.297-0.084,7.772,3.356,7.829,7.623l0.011,0.828c0.057,4.267-3.356,7.772-7.623,7.829      C83.212,264.033,83.177,264.033,83.142,264.033z"/>
				<path id="XMLID_1172_" style="fill:#00C980;" d="M83.071,290.155c-4.219,0-7.667-3.391-7.724-7.623l-0.011-0.828      c-0.057-4.267,3.356-7.772,7.623-7.829c4.307-0.065,7.772,3.356,7.829,7.623l0.011,0.828c0.057,4.267-3.356,7.772-7.623,7.829      C83.14,290.155,83.105,290.155,83.071,290.155z"/>
				<path id="XMLID_1173_" style="fill:#00C980;" d="M95.774,276.721c-4.219,0-7.667-3.391-7.724-7.623      c-0.057-4.267,3.355-7.772,7.622-7.829l0.823-0.011c4.272-0.087,7.772,3.356,7.829,7.622c0.057,4.267-3.355,7.772-7.622,7.829      l-0.823,0.011C95.845,276.721,95.809,276.721,95.774,276.721z"/>
				<path id="XMLID_1174_" style="fill:#00C980;" d="M69.604,276.649c-4.221,0-7.67-3.394-7.724-7.627      c-0.055-4.267,3.36-7.77,7.627-7.825l0.823-0.011c4.228-0.049,7.77,3.36,7.825,7.627c0.055,4.267-3.36,7.77-7.627,7.825      l-0.823,0.011C69.672,276.649,69.638,276.649,69.604,276.649z"/>
			</g>
		</g>
	</g>
</g>















</svg>
