<?xml version="1.0" encoding="utf-8"?>
<svg width="25px" height="25px" viewBox="0 0 25 25" version="1.1" xmlns:xlink="http://www.w3.org/1999/xlink" xmlns="http://www.w3.org/2000/svg">
  <path d="M10.9091 0L10.3247 3.701C9.43588 3.92014 8.58766 4.24885 7.82468 4.70741L4.77273 2.53226L2.56493 4.73988L4.70779 7.79158C4.24513 8.55856 3.89205 9.39859 3.66883 10.2914L0 10.9082L0 14.0248L3.66883 14.6741C3.89205 15.5669 4.24513 16.407 4.70779 17.1739L2.53247 20.2256L4.74026 22.4333L7.79221 20.2906C8.55519 20.7491 9.40341 21.0778 10.2922 21.297L10.9091 24.998L14.026 24.998L14.7078 21.297C15.5925 21.0738 16.4164 20.7207 17.1753 20.2581L20.2597 22.4333L22.4675 20.2256L20.2597 17.1739C20.7143 16.4151 21.0795 15.5872 21.2987 14.7066L25 14.0248L25 10.9082L21.2987 10.2914C21.0795 9.41077 20.7143 8.58291 20.2597 7.82404L22.4351 4.73988L20.2273 2.53226L17.1753 4.73988C16.4164 4.28131 15.5641 3.9242 14.6753 3.701L14.026 0L10.9091 0ZM12.5001 5.71387C16.246 5.71387 19.2858 8.75339 19.2858 12.499C19.2858 16.2447 16.246 19.2842 12.5001 19.2842C8.75413 19.2842 5.71436 16.2406 5.71436 12.499C5.71436 8.75745 8.75413 5.71387 12.5001 5.71387L12.5001 5.71387ZM12.4676 10.3564C13.6567 10.3564 14.6429 11.306 14.6429 12.4991C14.6429 13.6882 13.6567 14.6418 12.4676 14.6418C11.2784 14.6418 10.3247 13.6882 10.3247 12.4991C10.3247 11.306 11.2784 10.3564 12.4676 10.3564L12.4676 10.3564Z" id="Shape" fill="$c-whitest" fill-rule="evenodd" stroke="none" />
</svg>
