<svg xmlns="http://www.w3.org/2000/svg" viewBox="0 0 163.82 163.82"><defs><style>.cls-1{fill:#e73444;}.cls-2{fill:$c-whitest;}</style></defs><title>logoY</title><g id="Capa_2" data-name="Capa 2"><g id="Capa_1-2" data-name="Capa 1"><circle class="cls-1" cx="81.91" cy="81.91" r="81.91"/><path class="cls-2" d="M81.42,56.27,41,58.91,81.47,33.42Q81.44,44.85,81.42,56.27Z"/><path class="cls-2" d="M58.35,96.69,40.2,60l40.86-2.63Z"/><path class="cls-2" d="M59.18,97.24,82,57.77l22.78,39.47Z"/><path class="cls-2" d="M59.15,98.2,82,132.31,104.8,98.13Z"/><path class="cls-2" d="M105.58,96.69,123.7,60,82.86,57.33Z"/><path class="cls-2" d="M82.46,56.24l40.44,2.67L82.47,33.43Z"/><path class="cls-2" d="M57.59,97.59Q48.65,79.44,39.72,61.28q0,22.93-.07,45.86Z"/><path class="cls-2" d="M58.22,98.45,80.6,132.17,40,108.33Z"/><path class="cls-2" d="M105.72,98.47l-22.5,33.7,40.1-23.59Z"/><path class="cls-2" d="M106.3,97.57l17.87-36.24-.45,46.1Z"/></g></g></svg>
