<?xml version="1.0" encoding="utf-8"?>
<svg width="40px" height="41px" viewBox="0 0 40 41" version="1.1" xmlns:xlink="http://www.w3.org/1999/xlink" xmlns="http://www.w3.org/2000/svg">
  <defs>
    <path d="M0 0L40 0L40 40L0 40L0 0Z" id="path_1" />
    <clipPath id="mask_1">
      <use xlink:href="#path_1" />
    </clipPath>
  </defs>
  <g id="music">
    <path d="M0 0L40 0L40 40L0 40L0 0Z" id="Background" fill="none" fill-rule="evenodd" stroke="none" />
    <g clip-path="url(#mask_1)">
      <g id="Group" transform="translate(0 0.00036621094)">
        <g id="Group">
          <path d="M39.5243 0.363496C39.2204 0.0948853 38.8177 -0.0341045 38.4143 0.00774815L12.7 2.86486C11.9762 2.94497 11.4285 3.55668 11.4286 4.28484L11.4286 29.7435C10.1339 28.9687 8.65178 28.5631 7.14291 28.5706C3.20432 28.5707 0 31.1335 0 34.2849C0 37.4363 3.20432 39.9992 7.14282 39.9992C11.0813 39.9992 14.2856 37.4377 14.2856 34.2849L14.2856 12.7135L37.1428 10.1678L37.1428 26.8821C35.8476 26.1088 34.3655 25.7047 32.8571 25.7135C28.9185 25.7135 25.7143 28.2764 25.7143 31.4278C25.7143 34.5792 28.9186 37.1421 32.8571 37.1421C36.7956 37.1421 39.9999 34.5806 39.9999 31.4278L39.9999 1.42781C39.9999 1.0215 39.827 0.63445 39.5243 0.363496L39.5243 0.363496Z" id="Shape" fill="$c-grey-white" fill-rule="evenodd" stroke="none" />
        </g>
      </g>
    </g>
  </g>
</svg>
