<svg xmlns="http://www.w3.org/2000/svg" viewBox="0 0 23.78 24.81"><defs><style>.cls-1{fill:#1d1d1b;}</style></defs><title>user</title><g id="Capa_2" data-name="Capa 2"><g id="Capa_1-2" data-name="Capa 1"><path class="cls-1" d="M23.78,21.38v.07a.28.28,0,0,1,0,.09c-.21,1.82-5.45,3.27-11.88,3.27S.22,23.36,0,21.54a.28.28,0,0,1,0-.09v-.07C.12,17.89,4.06,15,9.3,14.26l.13-.95a7.69,7.69,0,0,1-3.17-7.4C6.72,3.21,8.92,0,12.17,0s5.49,3.08,5.91,5.91a7.41,7.41,0,0,1-3.76,7.39l.16,1C19.72,15,23.66,17.89,23.78,21.38Z"/></g></g></svg>